<svg xmlns="http://www.w3.org/2000/svg" viewBox="0 0 900 160"><path d="M85.61,87.94A35.58,35.58,0,1,1,50,52.36h0A35.62,35.62,0,0,1,85.61,87.94m11.1,0A46.65,46.65,0,0,0,14.44,57.78V20.7a5.56,5.56,0,0,0-11.11,0V87.94a46.69,46.69,0,0,0,93.38,0m101.68-2a6,6,0,0,0,0-1.2,46.65,46.65,0,1,0-6.76,27.59c.53-.86,1-1.74,1.51-2.65a5.55,5.55,0,0,0-9.82-5.19h0a22.89,22.89,0,0,1-1.15,2,35.55,35.55,0,1,1,4.23-26.8H132.05a5.56,5.56,0,0,0-.46,11.11H192.9a5.56,5.56,0,0,0,5.49-4.89m101.86,35.74a19.64,19.64,0,0,1-8.29,1.83C280.41,123.48,271,113.4,271,101V53.48H291a5.56,5.56,0,0,0,0-11.11H271V20.74a5.55,5.55,0,0,0-11.09,0h0V42.36H222.2V20.74a5.56,5.56,0,1,0-11.11-.47V101c0,18.52,14.37,33.59,32,33.59a30.5,30.5,0,0,0,13-2.87,5.55,5.55,0,0,0-4.67-10.08,19.52,19.52,0,0,1-8.3,1.84c-11.54,0-20.93-10.08-20.93-22.48V53.48h37.72V101c0,18.52,14.37,33.59,32,33.59a30.6,30.6,0,0,0,13-2.87,5.56,5.56,0,0,0-4.35-10.23l-.34.15m98.94-36.9a46.65,46.65,0,1,0-6.76,27.59c.54-.86,1-1.74,1.51-2.65a5.55,5.55,0,0,0-9.82-5.19,20.58,20.58,0,0,1-1.15,2,35.57,35.57,0,1,1,4.22-26.8H332.82a5.56,5.56,0,1,0-.47,11.11h61.29a5.55,5.55,0,0,0,5.49-4.89c0-.08.07-1.1.06-1.2m66.1-33.31a5.54,5.54,0,0,0-3-7.25,35.16,35.16,0,0,0-37.6,6.94V47.05a5.56,5.56,0,0,0-11.11,0v81.8a5.56,5.56,0,1,0,11.11.47,3.69,3.69,0,0,0,0-.47V76.76a24.13,24.13,0,0,1,33.35-22.29,5.54,5.54,0,0,0,7.25-3m134.77-2.23a5.57,5.57,0,1,0-10.27-4.32h0L560,114.88l-18.68-44,9.22-21.68a5.56,5.56,0,0,0-10.24-4.3l-5,11.79-5-11.79a5.55,5.55,0,1,0-10.24,4.3h0l9.23,21.68-18.7,44L480.83,44.94a5.55,5.55,0,1,0-10.24,4.3h0L505.4,131a5.51,5.51,0,0,0,4,3.24,7,7,0,0,0,2.41,0,5.53,5.53,0,0,0,4-3.24L535.28,85.1,554.88,131a5.51,5.51,0,0,0,4,3.24,6.85,6.85,0,0,0,2.39,0,5.49,5.49,0,0,0,4-3.24ZM684.38,88A35.59,35.59,0,1,1,648.8,52.38h0A35.63,35.63,0,0,1,684.38,88m11.11,0a46.65,46.65,0,1,0-46.65,46.65A46.65,46.65,0,0,0,695.49,88M760.55,51.5a5.54,5.54,0,0,0-3-7.25A35.16,35.16,0,0,0,720,51.19V47.12a5.56,5.56,0,0,0-11.1,0v81.8a5.55,5.55,0,1,0,11.1.47,3.69,3.69,0,0,0,0-.47V76.76a24.13,24.13,0,0,1,33.35-22.29,5.55,5.55,0,0,0,7.26-3m75.9,82.11a5.56,5.56,0,0,0,1.26-7.76L801.27,75.52l26.21-24.23a5.55,5.55,0,0,0-7.55-8.15h0l-36.76,34V20.74a5.55,5.55,0,0,0-11.1,0h0V128.93a5.55,5.55,0,1,0,11.1,0h0V92.28l9.92-9.16,35.61,49.2a5.53,5.53,0,0,0,7.73,1.26h0m51.27-75.34a5.65,5.65,0,0,0,.56-8h0C882.5,43,875.37,40,866.43,41a19.32,19.32,0,0,0-15.17,12.26C849.84,57.16,848.69,65,857,73.86l22.39,22.47c8.58,8.77,6.94,17.19,2.68,22.06-2.68,3-7.24,4.84-12.19,5.12-4.49.27-10.45-.48-17-8.38a5.56,5.56,0,0,0-8.57,7.08c7,8.37,14.89,12.45,24.3,12.45.61,0,1.24,0,1.86,0,7.94-.45,15.11-3.62,19.85-8.8,8-8.93,10-23.94-3.06-37.31L865,66.18c-3.15-3.37-4.26-6.42-3.29-9.07a8.38,8.38,0,0,1,6.08-5c5-.6,8.45.88,11.81,5.1a6,6,0,0,0,8.14,1.09" fill="#333"/><rect width="900" height="160" fill="none"/></svg>